<?xml version="1.0" encoding="UTF-8" standalone="no"?>
<svg
   viewBox="0 0 150.96 141.779"
   version="1.1"
   id="svg36"
   sodipodi:docname="logo.svg"
   xml:space="preserve"
   inkscape:version="1.2.2 (732a01da63, 2022-12-09)"
   xmlns:inkscape="http://www.inkscape.org/namespaces/inkscape"
   xmlns:sodipodi="http://sodipodi.sourceforge.net/DTD/sodipodi-0.dtd"
   xmlns="http://www.w3.org/2000/svg"
   xmlns:svg="http://www.w3.org/2000/svg"><sodipodi:namedview
     id="namedview38"
     pagecolor="#ffffff"
     bordercolor="#000000"
     borderopacity="0.25"
     inkscape:showpageshadow="2"
     inkscape:pageopacity="0.0"
     inkscape:pagecheckerboard="0"
     inkscape:deskcolor="#d1d1d1"
     showgrid="false"
     inkscape:zoom="2.1520575"
     inkscape:cx="-170.99915"
     inkscape:cy="103.1571"
     inkscape:window-width="1920"
     inkscape:window-height="1017"
     inkscape:window-x="-8"
     inkscape:window-y="-8"
     inkscape:window-maximized="1"
     inkscape:current-layer="g1458"
     showguides="true"><sodipodi:guide
       position="13.810559,88.221695"
       orientation="1,0"
       id="guide394"
       inkscape:locked="false" /></sodipodi:namedview><defs
     id="defs4"><style
       id="style2">
      .cls-1, .cls-2, .cls-3, .cls-4 {
        fill: #fff;
      }

      .cls-1 {
        font-size: 38.206px;
      }

      .cls-1, .cls-2 {
        font-family: BebasNeueBold, Bebas Neue;
      }

      .cls-2 {
        font-size: 21.299px;
      }

      .cls-4 {
        font-size: 7.93px;
        font-family: Helvetica;
        letter-spacing: 0.03em;
      }
    </style></defs><g
     inkscape:groupmode="layer"
     id="layer1"
     inkscape:label="vv"><g
       inkscape:label="Layer 1"
       inkscape:groupmode="layer"
       id="layer1-6"
       transform="matrix(3.7795276,0,0,3.7795276,-240.7785,-348.94405)"><g
         id="g1458"
         transform="matrix(0.52548393,0,0,0.52548393,132.49807,54.320261)"
         style="fill:#000000;fill-opacity:0.96470606"><path
           style="fill:#000000;fill-opacity:0.964706;stroke-width:0.288487"
           d="m -69.641407,138.43382 c -0.497345,-0.57242 -1.84225,-2.14423 -2.988673,-3.49291 -1.146427,-1.34868 -1.89588,-1.98666 -2.544011,-3.17915 -0.516591,-0.95048 -0.31102,-2.26566 -1.023409,-3.07977 -1.340589,-1.53199 -3.566222,-2.00862 -5.488825,-2.67778 -1.104945,-0.38458 -2.27205,-0.57381 -3.428325,-0.75222 -1.479099,-0.22823 -2.250636,-0.40687 -4.471557,-0.40442 -3.78541,0.004 -5.626514,0.43759 -8.576666,2.01906 -0.952009,0.51033 -2.380027,1.24094 -3.173367,1.62356 -0.79334,0.38262 -1.65707,0.81546 -1.9194,0.96185 -1.51422,0.84497 -5.37874,2.26029 -8.23201,2.71735 -1.54939,0.24819 -3.20026,0.43116 -4.70745,-0.005 -3.78938,-1.75078 -6.63888,-4.11621 -9.66257,-6.57179 -0.95237,-0.77342 -1.35128,-1.32596 -2.65024,-2.55397 -2.1127,-1.99729 -2.47444,-2.69907 -1.02407,-1.98671 3.78464,2.22572 7.59717,3.53946 11.63418,4.57045 1.21183,0.30948 2.47764,0.59123 3.72254,0.4706 2.43618,-0.23605 4.96849,-0.89711 6.97246,-2.30237 1.09547,-0.76818 1.70651,-2.06422 2.48192,-3.15459 0.51684,-0.72675 0.95214,-1.50831 1.4431,-2.25279 0.45986,-0.69734 0.99361,-1.34779 1.40723,-2.07351 1.05063,-1.8434 2.285668,-3.68071 2.709986,-5.75962 0.214295,-1.04991 0.458269,-2.30985 -0.11924,-3.21247 -0.891036,-1.39265 -2.770406,-2.28791 -4.423136,-2.24424 -3.87331,0.159 -4.85916,1.63769 -6.85567,3.4696 -0.95136,0.87293 -2.79838,2.07292 -3.08951,2.3364 -0.6928,0.62697 -0.50756,-0.35209 -0.5258,-0.62329 -0.0573,-0.8528 0.909,-1.44785 1.37607,-2.16368 0.61485,-0.82338 1.08661,-1.82459 1.61023,-2.59639 1.01881,-1.48448 1.75329,-3.38026 3.32686,-4.25519 1.82131,-1.01269 4.14311,-0.89029 6.21555,-0.67185 2.070903,0.21828 3.996797,1.18885 5.934481,1.9515 4.138847,1.62903 8.915672,3.29992 12.116478,5.5897 4.114639,3.1923 5.694691,0.93942 7.944085,-0.46645 1.738201,-1.08637 3.670519,-3.41821 3.014025,-5.35999 -0.410243,-1.21342 -2.684362,-0.55692 -3.529556,-1.51938 -0.232086,-0.26429 -0.08961,-0.72489 -0.288488,-1.014985 -0.09484,-0.13834 -0.305465,-0.165564 -0.401866,-0.302822 -0.64874,-0.923698 -1.352803,-2.163529 -0.999223,-3.235473 0.85503,-2.592182 4.308448,-3.363594 6.597174,-4.850948 0.562632,-0.365633 1.100088,-0.824612 1.748395,-0.997643 1.68893,-0.450768 3.547621,-0.437679 5.244122,-0.0163 0.581756,0.144497 1.058053,0.563738 1.586683,0.846353 1.7799,0.951564 4.059501,1.297184 5.337018,2.859704 1.16348,1.423044 2.607401,4.889484 1.586683,5.281205 -0.238022,0.09135 -0.219303,0.509029 -0.432737,0.665369 -2.526486,1.8507 -6.334142,0.95658 -9.054347,2.50858 -2.718905,1.55127 -4.509402,4.34289 -6.763493,6.51498 -1.697253,1.6355 -2.948822,3.92395 -5.090841,4.90747 -0.704243,0.32335 -1.541449,0.27075 -2.314565,0.21779 -1.936871,-0.13271 -4.042542,-0.48864 -5.670019,-1.33141 -0.42115,-0.21809 -1.216773,-0.39652 -1.768047,-0.39652 -0.822186,0 -1.061554,0.14301 -1.33193,0.79576 -0.181289,0.43766 -0.748769,1.25613 -1.261071,1.81881 -1.128416,1.23939 -2.518239,3.22841 -2.517876,3.60341 1.52e-4,0.15781 1.612925,0.27379 3.822459,0.27489 2.119464,0.001 4.336263,0.15534 4.976146,0.34634 0.634672,0.18946 1.501171,0.4158 1.92555,0.503 1.312367,0.26965 5.212944,3.09956 6.381757,4.63002 1.243898,1.62877 2.756028,4.48831 3.50873,6.63521 0.278142,0.79335 0.612026,1.70207 0.741963,2.01941 0.621657,1.51823 2.033723,5.98422 1.955145,6.1836 -0.04883,0.12389 -0.495686,-0.2431 -0.993032,-0.81552 z m 9.644705,-38.90259 c -1.222137,-0.05397 -2.972274,-0.387816 -4.466546,-0.381997 -2.622193,0.01025 -7.995482,-0.763123 -7.832568,0.731372 0.181659,1.666455 6.477597,0.187995 9.706399,-0.01965 0.869395,-0.05591 6.271455,-0.355844 2.592715,-0.329537 z m -30.359692,3.10157 c -1.389445,-0.26648 -2.858995,-1.7621 -3.353664,-3.413158 -0.419266,-1.399384 -0.252231,-2.157294 0.830861,-3.769982 1.362814,-2.029179 0.847296,-3.103905 -1.629583,-3.397253 -2.169008,-0.256887 -3.067503,-1.297822 -3.067503,-3.553803 0,-1.394538 0.123595,-1.830437 0.689918,-2.433263 0.379457,-0.403912 0.961481,-0.815846 1.293388,-0.915412 0.331908,-0.09956 0.992925,-0.536543 1.46893,-0.971066 2.084723,-1.903048 3.841494,-2.249726 6.058239,-1.195523 0.634672,0.301826 1.673227,0.708132 2.3079,0.902905 1.473909,0.452323 1.791952,0.717688 2.482533,2.071338 0.475921,0.932879 0.516953,1.287023 0.259777,2.242093 -0.356516,1.323999 -0.81309,1.839177 -2.304097,2.599829 -1.844235,0.940859 -1.922386,2.062577 -0.29397,4.219391 1.018872,1.34949 1.153951,1.712848 1.153951,3.104086 0,3.297098 -2.449998,5.170878 -5.89668,4.509818 z m 21.479507,-15.618083 c -0.552862,-0.296839 -1.169505,-0.539705 -1.370316,-0.539705 -0.20081,0 -0.365109,-0.129819 -0.365109,-0.288487 0,-0.588791 1.977677,-0.299617 2.732005,0.399471 0.971636,0.90048 0.36674,1.160701 -0.99658,0.428721 z m 2.300761,-0.687125 c -0.196066,-0.236254 -0.51943,-0.429555 -0.718582,-0.429555 -0.199143,0 -0.516765,-0.186383 -0.705826,-0.414187 -0.18906,-0.227804 -0.756689,-0.495004 -1.261397,-0.593776 -1.716893,-0.336005 -4.060716,-1.469697 -5.222337,-2.526009 -0.933001,-0.848421 -0.463362,-1.152387 0.571332,-0.369783 0.307995,0.232954 0.826122,0.427683 1.151392,0.432731 0.32527,0.005 0.714727,0.131547 0.865462,0.281117 0.150735,0.149569 0.793341,0.400337 1.428013,0.557265 2.747911,0.679437 4.760044,1.867325 4.760044,2.810148 0,0.581389 -0.479283,0.720547 -0.868101,0.252049 z m -5.767111,-1.006529 c 0,-0.338601 0.221737,-0.338601 1.009705,0 0.511273,0.2197 0.486633,0.250242 -0.216365,0.268208 -0.436337,0.01116 -0.79334,-0.10954 -0.79334,-0.268208 z"
           id="path1059"
           sodipodi:nodetypes="csaaaacsssacascaaaaaaaacssaccaaacaaaaaaaaaaasaaaaassssscsssssscccasaccssssssssssssssssssssssssssscssssssss" /><g
           id="g1394"
           transform="matrix(-0.573363,0,0,0.573363,-198.2459,51.441208)"
           style="opacity:1;fill:#000000;fill-opacity:0.964706"><path
             id="rect1231-3-5"
             style="opacity:1;fill:#000000;fill-opacity:0.964706;stroke-width:0"
             d="m -136.94129,100.50845 c 7.54095,-0.0524 0,0 7.54095,-0.0524 2.06749,-0.0144 10.42194,0.11651 10.37602,0.79673 -0.0447,0.6618 -9.0091,0.80765 -10.07957,0.82935 -7.7527,0.15715 0,0 -7.7527,0.15715 -3.84841,0.078 -11.40312,-0.3314 -11.4348,-1.01269 -0.0322,-0.69395 10.22762,-0.71036 11.3501,-0.71816 z"
             sodipodi:nodetypes="sssssss" /><path
             id="rect1231-2"
             style="opacity:1;fill:#000000;fill-opacity:0.964706;stroke-width:0"
             d="m -137.0473,86.359652 c 7.78442,-0.05238 0,0 7.78442,-0.05238 2.13424,-0.01436 10.75842,0.116514 10.71102,0.796735 -0.0461,0.661804 -9.29997,0.80765 -10.405,0.829349 -8.003,0.157152 0,0 -8.003,0.157152 -3.97267,0.07801 -11.77129,-0.331405 -11.80399,-1.012693 -0.0333,-0.693951 10.55783,-0.710362 11.71655,-0.718159 z"
             sodipodi:nodetypes="sssssss" /><path
             id="rect1231-2-5"
             style="fill:#000000;fill-opacity:0.964706;stroke-width:0"
             d="m -137.51977,114.65722 c 7.78442,-0.0524 0,0 7.78442,-0.0524 2.13424,-0.0144 10.75842,0.11652 10.71102,0.79674 -0.0461,0.6618 -9.29997,0.80765 -10.405,0.82935 -8.003,0.15715 0,0 -8.003,0.15715 -3.97267,0.078 -11.77129,-0.3314 -11.80399,-1.01269 -0.0333,-0.69395 10.55783,-0.71036 11.71655,-0.71816 z"
             sodipodi:nodetypes="sssssss" /></g></g></g></g></svg>
